<?xml version="1.0" standalone="no"?>
<!DOCTYPE svg PUBLIC "-//W3C//DTD SVG 20010904//EN"
 "http://www.w3.org/TR/2001/REC-SVG-20010904/DTD/svg10.dtd">
<svg version="1.0" xmlns="http://www.w3.org/2000/svg"
 width="192.000000pt" height="118.000000pt" viewBox="0 0 192.000000 118.000000"
 preserveAspectRatio="xMidYMid meet">

<g transform="translate(0.000000,118.000000) scale(0.100000,-0.100000)"
fill="#000000" stroke="none">
<path d="M892 1085 c-85 -37 -135 -99 -154 -189 -23 -119 54 -245 171 -280 68
-20 84 -20 150 0 37 11 66 29 98 60 l45 46 -22 15 c-20 14 -24 13 -58 -20 -21
-19 -46 -39 -57 -44 -91 -45 -209 -4 -256 90 -26 49 -28 131 -5 174 18 35 78
90 113 104 66 25 167 -2 214 -58 20 -24 30 -28 42 -21 10 5 17 15 17 22 0 23
-86 94 -126 105 -54 15 -133 13 -172 -4z"/>
<path d="M1196 663 c-75 -87 -204 -119 -315 -79 -36 13 -46 14 -53 4 -15 -25
68 -53 157 -52 67 0 89 4 135 28 85 43 152 114 127 134 -9 7 -23 -2 -51 -35z"/>
<path d="M1652 519 c-7 -12 -12 -23 -10 -25 6 -6 48 26 48 37 0 17 -25 9 -38
-12z"/>
<path d="M35 486 c-65 -65 -27 -176 60 -176 40 0 85 25 85 46 0 18 -14 18 -51
-1 -25 -13 -34 -14 -57 -3 -45 22 -43 95 4 117 22 10 31 9 51 -4 25 -17 53
-14 53 4 0 16 -55 41 -90 41 -19 0 -40 -9 -55 -24z"/>
<path d="M1767 413 c-37 -80 -43 -99 -30 -101 8 -2 20 1 26 7 14 14 100 14
114 0 6 -6 18 -9 26 -7 12 2 5 23 -31 101 -24 53 -48 97 -52 97 -4 0 -28 -44
-53 -97z m71 -8 c18 -38 15 -45 -18 -45 -16 0 -30 4 -30 10 0 15 23 60 30 60
4 0 12 -11 18 -25z"/>
<path d="M259 460 c-29 -17 -43 -66 -29 -100 34 -83 150 -58 150 31 0 61 -68
100 -121 69z m87 -45 c15 -23 15 -27 0 -50 -30 -46 -96 -26 -96 29 0 46 69 61
96 21z"/>
<path d="M296 401 c-4 -5 -2 -12 3 -15 5 -4 12 -2 15 3 4 5 2 12 -3 15 -5 4
-12 2 -15 -3z"/>
<path d="M420 391 c0 -65 3 -81 15 -81 11 0 15 12 15 46 l0 46 55 -47 55 -47
0 81 c0 64 -3 81 -14 81 -11 0 -16 -14 -18 -47 l-3 -48 -52 49 -53 49 0 -82z"/>
<path d="M600 455 c0 -9 9 -15 25 -15 24 0 25 -2 25 -65 0 -51 3 -65 15 -65
12 0 15 14 15 65 l0 65 30 0 c20 0 30 5 30 15 0 12 -14 15 -70 15 -56 0 -70
-3 -70 -15z"/>
<path d="M770 390 c0 -64 3 -80 15 -80 12 0 15 14 15 65 0 65 0 65 29 65 37 0
59 -24 41 -45 -7 -8 -19 -15 -26 -15 -11 0 -10 -7 3 -35 10 -21 24 -35 35 -35
16 0 17 3 8 20 -7 14 -8 26 0 39 30 57 -2 101 -73 101 l-47 0 0 -80z"/>
<path d="M972 394 l-40 -80 79 1 c43 0 79 2 78 5 0 3 -17 39 -38 80 l-39 74
-40 -80z m68 -36 c0 -5 -11 -8 -25 -8 -29 0 -29 0 -13 35 l12 26 13 -23 c7
-13 12 -26 13 -30z"/>
<path d="M1130 390 l0 -80 60 0 c47 0 60 3 60 15 0 11 -12 15 -45 15 l-45 0 0
65 c0 51 -3 65 -15 65 -12 0 -15 -16 -15 -80z"/>
<path d="M1292 447 c-48 -51 -13 -137 54 -137 64 0 100 60 70 118 -25 49 -87
58 -124 19z m92 -23 c32 -31 11 -84 -32 -84 -35 0 -52 16 -52 50 0 14 5 31 12
38 17 17 54 15 72 -4z"/>
<path d="M1336 401 c-4 -5 -2 -12 3 -15 5 -4 12 -2 15 3 4 5 2 12 -3 15 -5 4
-12 2 -15 -3z"/>
<path d="M1460 390 c0 -64 3 -80 15 -80 12 0 15 14 15 65 0 65 0 65 29 65 37
0 59 -24 41 -45 -7 -8 -19 -15 -26 -15 -11 0 -10 -7 3 -35 10 -21 24 -35 35
-35 15 0 16 3 6 25 -9 19 -9 28 0 37 18 18 14 63 -6 81 -12 11 -36 17 -65 17
l-47 0 0 -80z"/>
<path d="M1640 390 c0 -64 3 -80 15 -80 12 0 15 16 15 80 0 64 -3 80 -15 80
-12 0 -15 -16 -15 -80z"/>
<path d="M472 113 c-22 -66 -23 -80 -2 -34 11 25 19 51 18 58 -2 8 -9 -3 -16
-24z"/>
<path d="M1338 143 c7 -3 16 -2 19 1 4 3 -2 6 -13 5 -11 0 -14 -3 -6 -6z"/>
<path d="M432 133 c-7 -2 -17 -14 -23 -26 -11 -21 -10 -20 15 2 14 14 26 26
26 28 0 3 0 3 -18 -4z"/>
<path d="M620 115 c-7 -13 -17 -22 -21 -19 -4 2 -11 0 -14 -6 -5 -7 -11 -8
-19 -1 -20 17 -66 2 -66 -22 0 -6 7 -2 16 9 8 10 12 13 8 5 -3 -7 0 -17 7 -22
11 -8 9 -14 -11 -31 -14 -11 -18 -19 -10 -16 8 2 25 19 38 38 12 18 22 27 22
20 0 -9 5 -7 15 6 13 16 14 16 9 2 -11 -33 11 -18 28 19 20 42 18 56 -2 18z
m-66 -40 c-4 -8 -8 -15 -10 -15 -2 0 -4 7 -4 15 0 8 4 15 10 15 5 0 7 -7 4
-15z"/>
<path d="M840 104 c-12 -19 -20 -38 -16 -41 3 -4 6 -1 6 6 0 8 5 9 18 2 19
-10 42 2 42 23 0 5 -7 1 -16 -10 -15 -18 -15 -18 -10 0 6 16 4 17 -9 6 -20
-16 -19 -6 1 25 9 14 14 25 11 25 -3 0 -15 -16 -27 -36z"/>
<path d="M1214 115 c-9 -14 -19 -23 -22 -20 -7 7 -32 -15 -32 -28 0 -6 7 -2
15 9 14 19 14 19 15 -1 1 -15 3 -16 7 -5 3 8 15 27 25 43 11 15 17 27 14 27
-3 0 -13 -11 -22 -25z"/>
<path d="M1290 125 c-19 -22 -8 -25 13 -3 9 10 13 18 8 18 -5 0 -14 -7 -21
-15z"/>
<path d="M1434 115 c-9 -14 -19 -23 -22 -20 -3 2 -11 0 -18 -6 -8 -7 -14 -7
-19 1 -8 13 -35 -5 -35 -23 0 -6 6 -3 13 7 13 18 14 18 21 0 7 -19 8 -19 22 0
14 20 14 20 15 0 0 -12 3 -14 6 -5 4 9 8 10 12 3 4 -7 12 -3 20 11 13 20 13
21 -2 8 -21 -17 -22 -2 -1 27 8 12 13 22 10 22 -3 0 -13 -11 -22 -25z"/>
<path d="M1542 120 c-18 -29 -15 -38 4 -12 9 13 14 25 12 27 -2 2 -9 -5 -16
-15z"/>
<path d="M1343 118 c-15 -20 -25 -38 -20 -38 3 0 12 11 21 25 17 26 16 35 -1
13z"/>
<path d="M370 80 c-6 -11 -8 -20 -6 -20 3 0 10 9 16 20 6 11 8 20 6 20 -3 0
-10 -9 -16 -20z"/>
<path d="M630 86 c-5 -5 -10 -15 -10 -20 0 -6 5 -3 11 7 12 21 33 23 25 1 -4
-10 -2 -13 7 -7 17 11 31 10 39 -2 5 -6 8 -4 8 5 0 11 2 12 8 3 5 -9 12 -6 21
10 13 20 13 21 -2 8 -10 -7 -17 -10 -17 -5 0 13 -77 13 -90 0z"/>
<path d="M760 82 l-22 -18 24 -1 c12 0 17 1 10 4 -10 4 -8 9 5 19 10 7 15 14
12 14 -4 0 -17 -8 -29 -18z"/>
<path d="M922 88 c-15 -15 -16 -31 0 -22 8 5 9 2 5 -9 -18 -44 -16 -49 3 -13
15 26 24 35 30 27 5 -9 9 -6 13 9 5 21 5 21 -20 4 -24 -15 -25 -15 -20 0 8 19
5 20 -11 4z"/>
<path d="M990 86 c-6 -6 -10 -15 -10 -20 0 -6 6 -2 12 9 9 16 12 16 17 4 5
-13 9 -12 23 3 17 17 17 18 -7 16 -14 -1 -30 -7 -35 -12z"/>
<path d="M1081 87 c-6 -6 -11 -15 -11 -21 0 -5 6 -2 13 9 9 11 19 15 27 10 10
-6 9 -9 -1 -17 -12 -8 -12 -9 0 -6 8 2 15 11 16 19 3 18 -28 22 -44 6z"/>
<path d="M1220 85 c-19 -22 -8 -25 13 -3 9 10 13 18 8 18 -5 0 -14 -7 -21 -15z"/>
<path d="M1456 72 c-3 -4 4 -9 15 -9 23 -2 25 3 4 10 -8 4 -16 3 -19 -1z"/>
</g>
</svg>
